<?xml version="1.0" encoding="utf-8"?>
<!-- Generator: Adobe Illustrator 22.0.1, SVG Export Plug-In . SVG Version: 6.00 Build 0)  -->
<svg version="1.1" xmlns="http://www.w3.org/2000/svg" xmlns:xlink="http://www.w3.org/1999/xlink" x="0px" y="0px"
	 viewBox="0 0 194.9 194" style="enable-background:new 0 0 194.9 194;" xml:space="preserve">
<style type="text/css">
	.st0{fill:#FF6E5E;}
	.st1{fill:#6E5EFF;}
	.st2{fill:#FFBF5E;}
	.st3{fill:#112B3E;}
</style>
<g id="Layer_1">
	<g>
		<rect x="-135.5" y="-13.5" class="st0" width="17" height="17"/>
		<path d="M-119-13V3h-16v-16H-119 M-118-14h-18V4h18V-14L-118-14z"/>
	</g>
	<g>
		<rect x="-135.5" y="20.5" class="st1" width="17" height="17"/>
		<path d="M-119,21v16h-16V21H-119 M-118,20h-18v18h18V20L-118,20z"/>
	</g>
	<g>
		<rect x="-133.5" y="50.5" class="st2" width="15" height="15"/>
		<path d="M-119,51v14h-14V51H-119 M-118,50h-16v16h16V50L-118,50z"/>
	</g>
	<g>
		<path class="st0" d="M47,162.2c-3.1-2.3-6-4.8-8.7-7.6c-15.6-15.6-24.2-36.3-24.2-58.3c0-22,8.6-42.8,24.2-58.3
			c15.6-15.6,36.3-24.2,58.3-24.2c22,0,42.8,8.6,58.3,24.2c2.7,2.7,5.3,5.6,7.6,8.7c-14.2-10.8-31.5-16.6-49.6-16.6
			c-22,0-42.8,8.6-58.3,24.2C25.1,83.7,22.6,129.9,47,162.2z"/>
		<g>
			<path class="st3" d="M96.6,16.3c19.2,0,37.3,6.7,51.7,19c-11-5-23-7.7-35.5-7.7c-22.7,0-44,8.8-60.1,24.9
				c-25.8,25.8-31.5,64.3-17.1,95.7C8.9,116.8,10.4,69.4,40,39.8C55.1,24.6,75.2,16.3,96.6,16.3 M96.6,11.3
				c-21.8,0-43.5,8.3-60.1,24.9c-33.2,33.2-33.2,87,0,120.2c7.4,7.4,15.7,13.1,24.6,17.2c-1.7-1.4-3.3-2.9-4.8-4.4
				c-31.2-31.2-31.2-81.9,0-113.1c15.6-15.6,36.1-23.4,56.6-23.4c20.5,0,40.9,7.8,56.6,23.4c1.6,1.6,3,3.2,4.4,4.8
				c-4.1-8.9-9.8-17.3-17.2-24.6C140.1,19.6,118.4,11.3,96.6,11.3L96.6,11.3z"/>
		</g>
	</g>
	<g>
		<path class="st1" d="M98.4,179.6c-22,0-42.8-8.6-58.3-24.2c-2.7-2.7-5.3-5.6-7.6-8.7c14.2,10.8,31.5,16.6,49.6,16.6
			c22,0,42.8-8.6,58.3-24.2s24.2-36.3,24.2-58.3c0-18.1-5.8-35.4-16.6-49.6c3,2.3,5.9,4.8,8.7,7.6c32.2,32.2,32.2,84.5,0,116.7
			C141.2,171,120.4,179.6,98.4,179.6z"/>
		<g>
			<path class="st3" d="M159.4,45.4c26.6,31.4,25.2,78.7-4.5,108.3c-15.1,15.1-35.2,23.4-56.6,23.4c-19.2,0-37.3-6.7-51.7-19
				c11,5,23,7.7,35.5,7.7c22.7,0,44-8.8,60.1-24.9s24.9-37.4,24.9-60.1C167.1,68.4,164.5,56.4,159.4,45.4 M133.9,19.9
				c1.7,1.4,3.3,2.9,4.8,4.4c31.2,31.2,31.2,81.9,0,113.1c-15.6,15.6-36.1,23.4-56.6,23.4c-20.5,0-40.9-7.8-56.6-23.4
				c-1.6-1.6-3-3.2-4.4-4.8c4.1,8.9,9.8,17.3,17.2,24.6c16.6,16.6,38.4,24.9,60.1,24.9s43.5-8.3,60.1-24.9
				c33.2-33.2,33.2-87,0-120.2C151.2,29.7,142.8,23.9,133.9,19.9L133.9,19.9z"/>
		</g>
	</g>
</g>
<g id="Layer_2">
</g>
</svg>
